<svg xmlns="http://www.w3.org/2000/svg" viewBox="0 0 149.32 81.32"><defs><style>.cls-1{fill:#7cdec9;}</style></defs><title>Fichier 2</title><g id="Calque_2" data-name="Calque 2"><g id="HP"><path class="cls-1" d="M7.91,51.51H18.19V45.86H7.91V41.34H18.19L0,1.13H5.2L20.44,35,35.69,1.13h5l-18,40.21h8.93v4.52H22.7v5.65h8.93V56H22.7V80.19H18.19V56H7.91Z"/><path class="cls-1" d="M74.55,35.69H55.34v5.65H74.55v4.52H55.34V57.6a19.45,19.45,0,0,0,1.47,7.8,18.87,18.87,0,0,0,9.94,9.94,18.51,18.51,0,0,0,14.46,0,16.55,16.55,0,0,0,5.14-3.22,26.13,26.13,0,0,0,2.65-3l3.84,2.48a31,31,0,0,1-3.39,3.84A20.48,20.48,0,0,1,83,79.52a23.3,23.3,0,0,1-18,0A23.12,23.12,0,0,1,52.63,67.15a24.16,24.16,0,0,1-1.8-9.55V23.72a24.23,24.23,0,0,1,1.8-9.55A23.15,23.15,0,0,1,65,1.81a23.18,23.18,0,0,1,18,0,19.83,19.83,0,0,1,6.49,4.12,33.92,33.92,0,0,1,3.39,3.9l-.11-.12L89,12.2c-.6-.75-1.48-1.73-2.65-2.94A16,16,0,0,0,81.21,6,18.51,18.51,0,0,0,66.75,6a18.87,18.87,0,0,0-9.94,9.94,19.4,19.4,0,0,0-1.47,7.79v7.45H74.55Z"/><path class="cls-1" d="M107.53,57.6a18.31,18.31,0,0,0,1.24,6.78A18.83,18.83,0,0,0,112.21,70a18.34,18.34,0,0,0,5.2,4.07,19,19,0,0,0,6.49,2v-37a28.62,28.62,0,0,1-6.6-2.6,23.11,23.11,0,0,1-5.37-3.95,17.77,17.77,0,0,1-3.61-5.2A15,15,0,0,1,107,20.9a21.26,21.26,0,0,1,1.53-8.14,20.15,20.15,0,0,1,4.12-6.43,18.64,18.64,0,0,1,6.1-4.24A18.39,18.39,0,0,1,126.16.57a22.13,22.13,0,0,1,10.68,2.65,23.61,23.61,0,0,1,8.07,7.06l-3.72,2.48a19.27,19.27,0,0,0-5.54-5,18.86,18.86,0,0,0-7.23-2.54V35.13a30.74,30.74,0,0,1,8.3,2.88,26.79,26.79,0,0,1,6.61,4.8,21,21,0,0,1,4.41,6.44A19.3,19.3,0,0,1,149.32,57a24.41,24.41,0,0,1-1.81,9.43A22.85,22.85,0,0,1,135.14,79a23.18,23.18,0,0,1-18,0,23.21,23.21,0,0,1-12.37-12.37,22.68,22.68,0,0,1-1.8-9Zm4-36.7a10.82,10.82,0,0,0,3.61,8.3,22.39,22.39,0,0,0,8.81,4.91V5.31a13.87,13.87,0,0,0-8.92,5A16,16,0,0,0,111.48,20.9ZM144.8,57a13.27,13.27,0,0,0-1.3-5.93,17.3,17.3,0,0,0-3.5-4.8,21.19,21.19,0,0,0-5.2-3.67,37.88,37.88,0,0,0-6.38-2.54v36a17.31,17.31,0,0,0,6.38-1.92,18,18,0,0,0,5.2-4.12,20.33,20.33,0,0,0,3.5-5.82A19.34,19.34,0,0,0,144.8,57Z"/></g></g></svg>