<svg xmlns="http://www.w3.org/2000/svg" viewBox="0 0 339.97 258.25"><defs><style>.cls-1{fill:#fff;}</style></defs><title>Fichier 1</title><g id="Calque_2" data-name="Calque 2"><g id="HP"><path class="cls-1" d="M73.66,138.6h15v-8.25h-15v-6.61h15L62.09,64.94h7.6L92,114.49l22.29-49.55h7.27l-26.26,58.8h13v6.61h-13v8.25h13v6.61h-13v35.35H88.68V145.21h-15Z"/><path class="cls-1" d="M171.1,115.48H143v8.26H171.1v6.61H143v17.17a28.27,28.27,0,0,0,2.15,11.4,27.56,27.56,0,0,0,14.53,14.53,27.06,27.06,0,0,0,21.14,0,24.23,24.23,0,0,0,7.52-4.7,41,41,0,0,0,3.88-4.38l5.61,3.63a46.61,46.61,0,0,1-4.95,5.62,30.09,30.09,0,0,1-9.5,5.94,33.85,33.85,0,0,1-26.26,0,33.78,33.78,0,0,1-18.09-18.08,35.28,35.28,0,0,1-2.64-14V98a35.28,35.28,0,0,1,2.64-14,33.78,33.78,0,0,1,18.09-18.08,33.85,33.85,0,0,1,26.26,0,29.28,29.28,0,0,1,9.5,6,52.23,52.23,0,0,1,4.95,5.7l-.16-.16-5.45,3.63q-1.34-1.65-3.88-4.29a23.22,23.22,0,0,0-7.52-4.79,27.06,27.06,0,0,0-21.14,0,27.56,27.56,0,0,0-14.53,14.53A28.27,28.27,0,0,0,143,98v10.9H171.1Z"/><path class="cls-1" d="M219.32,147.52a26.65,26.65,0,0,0,1.82,9.91,27.32,27.32,0,0,0,5,8.26,26.63,26.63,0,0,0,7.59,5.95,27.76,27.76,0,0,0,9.5,3V120.44a41.78,41.78,0,0,1-9.66-3.8,34,34,0,0,1-7.85-5.78,26,26,0,0,1-5.28-7.6,22.19,22.19,0,0,1-2-9.41A31.19,31.19,0,0,1,220.72,82a29.72,29.72,0,0,1,6-9.42,27.28,27.28,0,0,1,8.92-6.19,26.94,26.94,0,0,1,10.9-2.23A32.29,32.29,0,0,1,262.18,68,34.63,34.63,0,0,1,274,78.32L268.54,82a27.92,27.92,0,0,0-18.66-11.07v43.77A45.08,45.08,0,0,1,262,118.87a39.55,39.55,0,0,1,9.67,7,30.68,30.68,0,0,1,6.44,9.41,28.2,28.2,0,0,1,2.31,11.4,35.62,35.62,0,0,1-2.64,13.79,33.44,33.44,0,0,1-18.09,18.25,34,34,0,0,1-26.26,0,33.78,33.78,0,0,1-18.08-18.09,33,33,0,0,1-2.65-13.13Zm5.78-53.67A15.83,15.83,0,0,0,230.39,106a32.64,32.64,0,0,0,12.88,7.18V71.06a20.29,20.29,0,0,0-13.05,7.26Q225.11,84.44,225.1,93.85Zm48.72,52.85a19.43,19.43,0,0,0-1.9-8.67,25,25,0,0,0-5.12-7,31,31,0,0,0-7.59-5.37,55.67,55.67,0,0,0-9.33-3.72v52.69a25,25,0,0,0,9.33-2.81,26,26,0,0,0,7.59-6,29.15,29.15,0,0,0,5.12-8.5A28.36,28.36,0,0,0,273.82,146.7Z"/><path class="cls-1" d="M301.79,258.25,248.4,223A233.3,233.3,0,0,1,170,236.26c-93.73,0-170-53-170-118.13S76.26,0,170,0,340,53,340,118.13c0,34.74-21.72,67.42-59.69,89.91ZM249,217.68l42.17,27.87-16.93-39.5,1.82-1.06c37.59-21.65,59.15-53.31,59.15-86.86C335.23,55.61,261.1,4.75,170,4.75S4.75,55.61,4.75,118.13,78.87,231.51,170,231.51c27.13,0,54.07-4.64,77.9-13.41Z"/></g></g></svg>